<svg xmlns="http://www.w3.org/2000/svg" xmlns:xlink="http://www.w3.org/1999/xlink" viewBox="0 0 361.2259 369.0705"><defs><clipPath id="clip-path"><path d="M186.7027,242.19l-.0069,2.4712q-1.8988-.5251-3.64-.9947t-3.2189-.8426q-1.4783-.3716-2.6005-.6568c-.7494-.19-1.34-.3355-1.7773-.4379l.0073-2.4713c.4364.1029,1.0274.2482,1.7769.4384q1.1213.286,2.6.6568,1.4781.3723,3.2187.8421Q184.804,241.6667,186.7027,242.19Z" style="fill:#1393f2"/></clipPath><clipPath id="clip-path-2"><path d="M194.9,244.6438l-.0069,2.4707q-1.6-.4453-3.184-.8874l.0067-2.4708Q193.2983,244.1988,194.9,244.6438Z" style="fill:#1393f2"/></clipPath><clipPath id="clip-path-3"><path d="M197.9812,245.5317l-.0068,2.4713q-1.4832-.4425-3.0818-.8885l.0069-2.4707Q196.4991,245.0892,197.9812,245.5317Z" style="fill:#1393f2"/></clipPath><clipPath id="clip-path-4"><path d="M181.4144,255.16l-.0069,2.4707q-2.2812-2.72-4.153-5.062t-3.4528-4.4573q-1.5807-2.1189-2.9228-4.0638t-2.5-3.8717l.0069-2.4712q1.1569,1.9272,2.5009,3.8717,1.3451,1.9463,2.9223,4.0643,1.5747,2.1153,3.4533,4.4573Q179.135,252.4392,181.4144,255.16Z" style="fill:#1393f2"/></clipPath><clipPath id="clip-path-5"><path d="M136.2745,185.2362l-8.49-4.9342a4.34,4.34,0,0,1-1.888-3.2993l8.49,4.9338A4.34,4.34,0,0,0,136.2745,185.2362Z" style="fill:#dad9e8"/></clipPath><clipPath id="clip-path-6"><path d="M143.579,96.6588l8.49,4.9342c-2.4776-1.44-5.9118-1.26-9.7573.96l-8.49-4.9342C137.6672,95.3988,141.1015,95.2193,143.579,96.6588Z" style="fill:#dad9e8"/></clipPath><clipPath id="clip-path-7"><path d="M126.2276,130.1777l-8.49-4.9342c-1.3887-8.8079,5.0357-21.2456,13.4963-26.13l8.49,4.9343C131.2634,108.9321,124.8389,121.37,126.2276,130.1777Z" style="fill:#ebebf1"/></clipPath><clipPath id="clip-path-8"><path d="M151.7047,102.9924l5.9134,3.4368c-2.51-1.459-5.9864-1.2537-9.8236.9616l-5.9133-3.4363C145.7177,101.7388,149.1941,101.534,151.7047,102.9924Z" style="fill:#05d4f5"/></clipPath><clipPath id="clip-path-9"><path d="M138.0553,140.091l-5.9138-3.4363c-2.478-1.44-4.0151-4.5026-4.0273-8.8551-.0249-8.764,6.14-19.4419,13.767-23.8451l5.9133,3.4363c-7.6268,4.4037-13.7918,15.0815-13.7669,23.8455C134.04,135.5888,135.5767,138.651,138.0553,140.091Z" style="fill:#05d4f5"/></clipPath><clipPath id="clip-path-10"><path d="M149.1653,113.1676l-1.3708-5.7768c7.6269-4.4032,13.8284-.8651,13.8534,7.8989s-6.1363,19.4355-13.7631,23.8387-13.8323.8719-13.8572-7.8921,6.14-19.4418,13.7669-23.8455l1.3708,5.7768c-5.2244,3.013-9.46,10.3492-9.44,16.35.0141,6.0041,4.2764,8.43,9.5012,5.41,5.2249-3.0135,9.4559-10.3419,9.436-16.3436C158.6484,112.5785,154.3886,110.1483,149.1653,113.1676Z" style="fill:#05d4f5"/></clipPath><clipPath id="clip-path-11"><path d="M236.0725,132.15l5.9139,3.4367c-2.51-1.4589-5.9864-1.2536-9.8236.9616l-5.9138-3.4367C230.086,130.8964,233.5623,130.6911,236.0725,132.15Z" style="fill:#05d4f5"/></clipPath><clipPath id="clip-path-12"><path d="M222.4236,169.2486l-5.9138-3.4367c-2.4786-1.44-4.0151-4.5022-4.0278-8.8547-.0247-8.7639,6.14-19.4423,13.767-23.8455l5.9138,3.4367c-7.6268,4.4032-13.7918,15.0816-13.7669,23.8456C218.4082,164.7464,219.945,167.8082,222.4236,169.2486Z" style="fill:#05d4f5"/></clipPath><clipPath id="clip-path-13"><path d="M233.533,142.3252l-1.37-5.7768c7.6269-4.4032,13.8285-.865,13.8534,7.899s-6.1368,19.435-13.7636,23.8387-13.8318.8713-13.8567-7.8921,6.14-19.4424,13.7669-23.8456l1.37,5.7768c-5.2238,3.0126-9.46,10.3488-9.4393,16.35.0136,6.004,4.2759,8.43,9.5012,5.41,5.2249-3.0135,9.4555-10.3419,9.436-16.3435C243.0167,141.7362,238.7569,139.3059,233.533,142.3252Z" style="fill:#05d4f5"/></clipPath><clipPath id="clip-path-14"><path d="M236.1413,223.3865l-8.49-4.9342a4.3419,4.3419,0,0,1-1.8887-3.3l8.49,4.9342A4.3427,4.3427,0,0,0,236.1413,223.3865Z" style="fill:#dad9e8"/></clipPath><clipPath id="clip-path-15"><path d="M243.4453,134.8091l8.49,4.9342c-2.4771-1.4394-5.9113-1.26-9.7572.96l-8.49-4.9342C237.534,133.5491,240.9682,133.37,243.4453,134.8091Z" style="fill:#dad9e8"/></clipPath><clipPath id="clip-path-16"><path d="M226.0939,168.3275l-8.49-4.9337c-1.3883-8.8079,5.0361-21.2456,13.4967-26.13l8.49,4.9337C231.13,147.0825,224.7058,159.52,226.0939,168.3275Z" style="fill:#ebebf1"/></clipPath></defs><g id="Layer_2" data-name="Layer 2"><g id="Layer_1-2" data-name="Layer 1"><polygon points="188.994 303.515 212.073 303.515 300.641 252.31 222.891 206.441 167.324 236.959 188.994 303.515" style="fill:#cfc4b8;opacity:0.30000000000000004"/><g style="isolation:isolate"><polygon points="104.342 232.686 108.47 230.288 114.066 233.519 109.939 235.918 104.342 232.686" style="fill:#e4e3ee"/><polygon points="114.917 230.889 119.045 228.49 114.821 235.39 110.694 237.789 114.917 230.889" style="fill:#b7b6e3"/><polygon points="124.681 235.094 128.809 232.695 128.805 234.126 124.678 236.524 124.681 235.094" style="fill:#919dd6"/><polygon points="114.163 229.02 118.29 226.622 128.809 232.695 124.681 235.094 114.163 229.02" style="fill:#e4e3ee"/><polygon points="124.681 235.094 124.678 236.524 114.917 230.889 110.694 237.789 104.338 234.119 104.342 232.686 109.939 235.918 114.163 229.02 124.681 235.094" style="fill:#919dd6"/></g><g style="isolation:isolate"><polygon points="119.673 223.955 123.8 221.557 129.396 224.788 125.269 227.187 119.673 223.955" style="fill:#e4e3ee"/><polygon points="130.248 222.158 134.375 219.76 130.152 226.659 126.024 229.057 130.248 222.158" style="fill:#b7b6e3"/><polygon points="140.012 226.362 144.138 223.964 144.134 225.394 140.007 227.793 140.012 226.362" style="fill:#919dd6"/><polygon points="129.492 220.289 133.619 217.891 144.138 223.964 140.012 226.362 129.492 220.289" style="fill:#e4e3ee"/><polygon points="140.012 226.362 140.007 227.793 130.248 222.158 126.024 229.057 119.668 225.388 119.673 223.955 125.269 227.187 129.492 220.289 140.012 226.362" style="fill:#919dd6"/></g><g style="isolation:isolate"><polygon points="134.354 215.21 138.481 212.811 144.078 216.043 139.951 218.442 134.354 215.21" style="fill:#e4e3ee"/><polygon points="144.929 213.413 149.056 211.015 144.833 217.914 140.706 220.313 144.929 213.413" style="fill:#b7b6e3"/><polygon points="154.693 217.617 158.82 215.219 158.816 216.65 154.689 219.048 154.693 217.617" style="fill:#919dd6"/><polygon points="144.174 211.544 148.301 209.146 158.82 215.219 154.693 217.617 144.174 211.544" style="fill:#e4e3ee"/><polygon points="154.693 217.617 154.689 219.048 144.929 213.413 140.706 220.313 134.35 216.643 134.354 215.21 139.951 218.442 144.174 211.544 154.693 217.617" style="fill:#919dd6"/></g><g style="isolation:isolate"><polygon points="89.188 242.183 93.315 239.785 98.912 243.017 94.785 245.415 89.188 242.183" style="fill:#e4e3ee"/><polygon points="99.763 240.386 103.89 237.988 99.667 244.887 95.54 247.286 99.763 240.386" style="fill:#b7b6e3"/><polygon points="109.527 244.591 113.654 242.192 113.65 243.623 109.523 246.021 109.527 244.591" style="fill:#919dd6"/><polygon points="99.008 238.517 103.135 236.119 113.654 242.192 109.527 244.591 99.008 238.517" style="fill:#e4e3ee"/><polygon points="109.527 244.591 109.523 246.021 99.763 240.386 95.54 247.286 89.184 243.616 89.188 242.183 94.785 245.415 99.008 238.517 109.527 244.591" style="fill:#919dd6"/></g><g style="isolation:isolate"><polygon points="150.675 205.988 154.802 203.589 160.399 206.821 156.272 209.219 150.675 205.988" style="fill:#e4e3ee"/><polygon points="161.25 204.191 165.377 201.792 161.154 208.692 157.027 211.09 161.25 204.191" style="fill:#b7b6e3"/><polygon points="171.014 208.395 175.141 205.996 175.137 207.427 171.01 209.825 171.014 208.395" style="fill:#919dd6"/><polygon points="160.495 202.322 164.622 199.923 175.141 205.996 171.014 208.395 160.495 202.322" style="fill:#e4e3ee"/><polygon points="171.014 208.395 171.01 209.825 161.25 204.191 157.027 211.09 150.671 207.42 150.675 205.988 156.272 209.219 160.495 202.322 171.014 208.395" style="fill:#919dd6"/></g><g style="isolation:isolate"><polygon points="166.36 197.082 170.487 194.683 176.084 197.915 171.957 200.313 166.36 197.082" style="fill:#e4e3ee"/><polygon points="176.935 195.285 181.062 192.886 176.839 199.786 172.712 202.184 176.935 195.285" style="fill:#b7b6e3"/><polygon points="186.7 199.489 190.826 197.091 190.823 198.521 186.695 200.92 186.7 199.489" style="fill:#919dd6"/><polygon points="176.18 193.416 180.308 191.017 190.826 197.091 186.7 199.489 176.18 193.416" style="fill:#e4e3ee"/><polygon points="186.7 199.489 186.695 200.92 176.935 195.285 172.712 202.184 166.356 198.515 166.36 197.082 171.957 200.313 176.18 193.416 186.7 199.489" style="fill:#919dd6"/></g><g style="isolation:isolate"><polygon points="272.351 232.9 268.224 230.502 262.627 233.733 266.755 236.132 272.351 232.9" style="fill:#e4e3ee"/><polygon points="261.776 231.103 257.649 228.705 261.872 235.604 266 238.002 261.776 231.103" style="fill:#b7b6e3"/><polygon points="252.012 235.307 247.885 232.909 247.89 234.339 252.016 236.738 252.012 235.307" style="fill:#919dd6"/><polygon points="262.531 229.234 258.404 226.836 247.885 232.909 252.012 235.307 262.531 229.234" style="fill:#e4e3ee"/><polygon points="252.012 235.307 252.016 236.738 261.776 231.103 266 238.002 272.355 234.333 272.351 232.9 266.755 236.132 262.531 229.234 252.012 235.307" style="fill:#919dd6"/></g><g style="isolation:isolate"><polygon points="257.021 224.17 252.894 221.771 247.298 225.002 251.425 227.401 257.021 224.17" style="fill:#e4e3ee"/><polygon points="246.446 222.372 242.319 219.974 246.542 226.873 250.669 229.272 246.446 222.372" style="fill:#b7b6e3"/><polygon points="236.682 226.576 232.555 224.178 232.559 225.609 236.686 228.007 236.682 226.576" style="fill:#919dd6"/><polygon points="247.202 220.503 243.074 218.105 232.555 224.178 236.682 226.576 247.202 220.503" style="fill:#e4e3ee"/><polygon points="236.682 226.576 236.686 228.007 246.446 222.372 250.669 229.272 257.026 225.602 257.021 224.17 251.425 227.401 247.202 220.503 236.682 226.576" style="fill:#919dd6"/></g><g style="isolation:isolate"><polygon points="242.34 215.424 238.213 213.026 232.616 216.257 236.743 218.656 242.34 215.424" style="fill:#e4e3ee"/><polygon points="231.765 213.627 227.638 211.228 231.861 218.128 235.988 220.527 231.765 213.627" style="fill:#b7b6e3"/><polygon points="222.001 217.832 217.874 215.433 217.878 216.863 222.005 219.262 222.001 217.832" style="fill:#919dd6"/><polygon points="232.52 211.758 228.393 209.36 217.874 215.433 222.001 217.832 232.52 211.758" style="fill:#e4e3ee"/><polygon points="222.001 217.832 222.005 219.262 231.765 213.627 235.988 220.527 242.344 216.857 242.34 215.424 236.743 218.656 232.52 211.758 222.001 217.832" style="fill:#919dd6"/></g><g style="isolation:isolate"><polygon points="287.506 242.397 283.379 239.999 277.782 243.231 281.909 245.629 287.506 242.397" style="fill:#e4e3ee"/><polygon points="276.931 240.6 272.804 238.202 277.027 245.101 281.154 247.5 276.931 240.6" style="fill:#b7b6e3"/><polygon points="267.167 244.805 263.039 242.406 263.044 243.837 267.171 246.235 267.167 244.805" style="fill:#919dd6"/><polygon points="277.686 238.731 273.559 236.333 263.039 242.406 267.167 244.805 277.686 238.731" style="fill:#e4e3ee"/><polygon points="267.167 244.805 267.171 246.235 276.931 240.6 281.154 247.5 287.51 243.83 287.506 242.397 281.909 245.629 277.686 238.731 267.167 244.805" style="fill:#919dd6"/></g><g style="isolation:isolate"><polygon points="226.019 206.202 221.892 203.803 216.295 207.035 220.422 209.433 226.019 206.202" style="fill:#e4e3ee"/><polygon points="215.444 204.404 211.317 202.006 215.54 208.906 219.667 211.304 215.444 204.404" style="fill:#b7b6e3"/><polygon points="205.68 208.609 201.553 206.21 201.556 207.641 205.684 210.039 205.68 208.609" style="fill:#919dd6"/><polygon points="216.199 202.536 212.071 200.137 201.553 206.21 205.68 208.609 216.199 202.536" style="fill:#e4e3ee"/><polygon points="205.68 208.609 205.684 210.039 215.444 204.404 219.667 211.304 226.023 207.634 226.019 206.202 220.422 209.433 216.199 202.536 205.68 208.609" style="fill:#919dd6"/></g><g style="isolation:isolate"><polygon points="210.334 197.296 206.206 194.897 200.61 198.129 204.737 200.527 210.334 197.296" style="fill:#e4e3ee"/><polygon points="199.759 195.499 195.631 193.1 199.855 200 203.982 202.398 199.759 195.499" style="fill:#b7b6e3"/><polygon points="189.995 199.703 185.867 197.304 185.871 198.735 189.998 201.134 189.995 199.703" style="fill:#919dd6"/><polygon points="200.513 193.63 196.386 191.231 185.867 197.304 189.995 199.703 200.513 193.63" style="fill:#e4e3ee"/><polygon points="189.995 199.703 189.998 201.134 199.759 195.499 203.982 202.398 210.338 198.729 210.334 197.296 204.737 200.527 200.513 193.63 189.995 199.703" style="fill:#919dd6"/></g><g style="isolation:isolate"><polygon points="277.48 242.228 277.451 252.111 189 303.514 189.028 293.63 277.48 242.228" style="fill:#12b0f3"/><polygon points="189.028 293.63 189 303.514 99.97 252.112 99.998 242.228 189.028 293.63" style="fill:#1393f2"/><polygon points="277.48 242.228 189.028 293.63 99.998 242.228 188.449 190.826 277.48 242.228" style="fill:#05d4f5"/></g><polygon points="256.28 239.721 256.265 244.663 188.938 283.789 188.952 278.847 256.28 239.721" style="fill:#d4d5f0"/><polygon points="188.952 278.847 188.938 283.789 121.17 244.664 121.184 239.721 188.952 278.847" style="fill:#c4c3ec"/><polygon points="256.28 239.721 188.952 278.847 121.184 239.721 188.512 200.595 256.28 239.721" style="fill:#fff"/><g style="isolation:isolate"><polygon points="92.735 267.721 88.608 265.323 92.778 253.579 96.906 255.977 92.735 267.721" style="fill:#c4c3ec"/><polygon points="96.906 255.977 92.778 253.579 103.297 247.506 107.425 249.905 96.906 255.977" style="fill:#e4e3ee"/><polygon points="87.136 270.954 83.009 268.556 88.608 265.323 92.735 267.721 87.136 270.954" style="fill:#e4e3ee"/><polygon points="87.14 272.386 83.013 269.988 83.009 268.556 87.136 270.954 87.14 272.386" style="fill:#b7b6e3"/><polygon points="107.425 249.905 107.428 251.335 97.667 256.971 93.498 268.716 87.14 272.386 87.136 270.954 92.735 267.721 96.906 255.977 107.425 249.905" style="fill:#919dd6"/></g><g style="isolation:isolate"><polygon points="108.253 276.603 104.126 274.204 108.296 262.461 112.423 264.859 108.253 276.603" style="fill:#c4c3ec"/><polygon points="112.423 264.859 108.296 262.461 118.815 256.388 122.943 258.786 112.423 264.859" style="fill:#e4e3ee"/><polygon points="102.654 279.835 98.527 277.437 104.126 274.204 108.253 276.603 102.654 279.835" style="fill:#e4e3ee"/><polygon points="102.659 281.268 98.531 278.869 98.527 277.437 102.654 279.835 102.659 281.268" style="fill:#b7b6e3"/><polygon points="122.943 258.786 122.946 260.217 113.184 265.853 109.016 277.597 102.659 281.268 102.654 279.835 108.253 276.603 112.423 264.859 122.943 258.786" style="fill:#919dd6"/></g><g style="isolation:isolate"><polygon points="123.647 285.576 119.52 283.178 123.691 271.434 127.818 273.833 123.647 285.576" style="fill:#c4c3ec"/><polygon points="127.818 273.833 123.691 271.434 134.209 265.361 138.337 267.76 127.818 273.833" style="fill:#e4e3ee"/><polygon points="118.048 288.809 113.921 286.411 119.52 283.178 123.647 285.576 118.048 288.809" style="fill:#e4e3ee"/><polygon points="118.053 290.241 113.925 287.843 113.921 286.411 118.048 288.809 118.053 290.241" style="fill:#b7b6e3"/><polygon points="138.337 267.76 138.341 269.19 128.579 274.826 124.41 286.571 118.053 290.241 118.048 288.809 123.647 285.576 127.818 273.833 138.337 267.76" style="fill:#919dd6"/></g><g style="isolation:isolate"><polygon points="139.036 294.486 134.909 292.087 139.08 280.343 143.207 282.741 139.036 294.486" style="fill:#c4c3ec"/><polygon points="143.207 282.741 139.08 280.343 149.599 274.27 153.727 276.668 143.207 282.741" style="fill:#e4e3ee"/><polygon points="133.438 297.719 129.31 295.32 134.909 292.087 139.036 294.486 133.438 297.719" style="fill:#e4e3ee"/><polygon points="133.441 299.151 129.314 296.753 129.31 295.32 133.438 297.719 133.441 299.151" style="fill:#b7b6e3"/><polygon points="153.727 276.668 153.731 278.099 143.968 283.735 139.8 295.48 133.441 299.151 133.438 297.719 139.036 294.486 143.207 282.741 153.727 276.668" style="fill:#919dd6"/></g><g style="isolation:isolate"><polygon points="154.621 303.334 150.494 300.934 154.665 289.191 158.792 291.589 154.621 303.334" style="fill:#c4c3ec"/><polygon points="158.792 291.589 154.665 289.191 165.184 283.117 169.312 285.516 158.792 291.589" style="fill:#e4e3ee"/><polygon points="149.022 306.566 144.895 304.167 150.494 300.934 154.621 303.334 149.022 306.566" style="fill:#e4e3ee"/><polygon points="149.026 307.999 144.899 305.6 144.895 304.167 149.022 306.566 149.026 307.999" style="fill:#b7b6e3"/><polygon points="169.312 285.516 169.315 286.946 159.553 292.583 155.384 304.328 149.026 307.999 149.022 306.566 154.621 303.334 158.792 291.589 169.312 285.516" style="fill:#919dd6"/></g><g style="isolation:isolate"><polygon points="169.906 312.257 165.779 309.858 169.949 298.115 174.076 300.513 169.906 312.257" style="fill:#c4c3ec"/><polygon points="174.076 300.513 169.949 298.115 180.468 292.041 184.596 294.44 174.076 300.513" style="fill:#e4e3ee"/><polygon points="164.307 315.489 160.18 313.091 165.779 309.858 169.906 312.257 164.307 315.489" style="fill:#e4e3ee"/><polygon points="164.311 316.922 160.183 314.524 160.18 313.091 164.307 315.489 164.311 316.922" style="fill:#b7b6e3"/><polygon points="184.596 294.44 184.6 295.871 174.837 301.506 170.669 313.252 164.311 316.922 164.307 315.489 169.906 312.257 174.076 300.513 184.596 294.44" style="fill:#919dd6"/></g><g style="isolation:isolate"><polygon points="285.049 267.884 289.176 265.485 285.006 253.742 280.878 256.14 285.049 267.884" style="fill:#c4c3ec"/><polygon points="280.878 256.14 285.006 253.742 274.487 247.668 270.36 250.067 280.878 256.14" style="fill:#e4e3ee"/><polygon points="290.647 271.116 294.775 268.718 289.176 265.485 285.049 267.884 290.647 271.116" style="fill:#e4e3ee"/><polygon points="290.643 272.549 294.771 270.15 294.775 268.718 290.647 271.116 290.643 272.549" style="fill:#b7b6e3"/><polygon points="270.36 250.067 270.356 251.498 280.117 257.134 284.285 268.878 290.643 272.549 290.647 271.116 285.049 267.884 280.878 256.14 270.36 250.067" style="fill:#919dd6"/></g><g style="isolation:isolate"><polygon points="269.531 276.765 273.658 274.367 269.488 262.623 265.36 265.022 269.531 276.765" style="fill:#c4c3ec"/><polygon points="265.36 265.022 269.488 262.623 258.968 256.55 254.842 258.949 265.36 265.022" style="fill:#e4e3ee"/><polygon points="275.129 279.998 279.257 277.599 273.658 274.367 269.531 276.765 275.129 279.998" style="fill:#e4e3ee"/><polygon points="275.125 281.43 279.253 279.032 279.257 277.599 275.129 279.998 275.125 281.43" style="fill:#b7b6e3"/><polygon points="254.842 258.949 254.837 260.379 264.599 266.015 268.767 277.759 275.125 281.43 275.129 279.998 269.531 276.765 265.36 265.022 254.842 258.949" style="fill:#919dd6"/></g><g style="isolation:isolate"><polygon points="254.136 285.739 258.264 283.34 254.093 271.597 249.966 273.995 254.136 285.739" style="fill:#c4c3ec"/><polygon points="249.966 273.995 254.093 271.597 243.574 265.524 239.447 267.922 249.966 273.995" style="fill:#e4e3ee"/><polygon points="259.735 288.971 263.862 286.573 258.264 283.34 254.136 285.739 259.735 288.971" style="fill:#e4e3ee"/><polygon points="259.731 290.404 263.859 288.005 263.862 286.573 259.735 288.971 259.731 290.404" style="fill:#b7b6e3"/><polygon points="239.447 267.922 239.443 269.353 249.205 274.989 253.374 286.734 259.731 290.404 259.735 288.971 254.136 285.739 249.966 273.995 239.447 267.922" style="fill:#919dd6"/></g><g style="isolation:isolate"><polygon points="238.747 294.648 242.874 292.249 238.704 280.506 234.577 282.904 238.747 294.648" style="fill:#c4c3ec"/><polygon points="234.577 282.904 238.704 280.506 228.184 274.432 224.057 276.83 234.577 282.904" style="fill:#e4e3ee"/><polygon points="244.346 297.88 248.473 295.482 242.874 292.249 238.747 294.648 244.346 297.88" style="fill:#e4e3ee"/><polygon points="244.342 299.313 248.47 296.915 248.473 295.482 244.346 297.88 244.342 299.313" style="fill:#b7b6e3"/><polygon points="224.057 276.83 224.053 278.261 233.815 283.898 237.984 295.642 244.342 299.313 244.346 297.88 238.747 294.648 234.577 282.904 224.057 276.83" style="fill:#919dd6"/></g><g style="isolation:isolate"><polygon points="223.162 303.495 227.29 301.097 223.119 289.353 218.992 291.752 223.162 303.495" style="fill:#c4c3ec"/><polygon points="218.992 291.752 223.119 289.353 212.6 283.279 208.472 285.678 218.992 291.752" style="fill:#e4e3ee"/><polygon points="228.762 306.728 232.889 304.329 227.29 301.097 223.162 303.495 228.762 306.728" style="fill:#e4e3ee"/><polygon points="228.757 308.161 232.885 305.762 232.889 304.329 228.762 306.728 228.757 308.161" style="fill:#b7b6e3"/><polygon points="208.472 285.678 208.468 287.109 218.231 292.745 222.399 304.49 228.757 308.161 228.762 306.728 223.162 303.495 218.992 291.752 208.472 285.678" style="fill:#919dd6"/></g><g style="isolation:isolate"><polygon points="207.877 312.419 212.005 310.021 207.835 298.277 203.707 300.676 207.877 312.419" style="fill:#c4c3ec"/><polygon points="203.707 300.676 207.835 298.277 197.315 292.203 193.187 294.602 203.707 300.676" style="fill:#e4e3ee"/><polygon points="213.477 315.652 217.605 313.254 212.005 310.021 207.877 312.419 213.477 315.652" style="fill:#e4e3ee"/><polygon points="213.473 317.085 217.6 314.686 217.605 313.254 213.477 315.652 213.473 317.085" style="fill:#b7b6e3"/><polygon points="193.187 294.602 193.184 296.033 202.946 301.669 207.114 313.414 213.473 317.085 213.477 315.652 207.877 312.419 203.707 300.676 193.187 294.602" style="fill:#919dd6"/></g><polygon points="144.559 239.72 147.867 241.63 188.586 265.142 188.586 214.133 144.559 239.72" style="fill:#d4d5f0"/><polygon points="188.586 214.133 188.586 265.142 188.874 265.308 229.597 241.642 232.905 239.72 188.586 214.133" style="fill:#c4c3ec"/><polygon points="229.597 241.642 188.874 265.308 147.867 241.63 188.586 217.965 229.597 241.642" style="fill:#05d4f5"/><polygon points="229.597 241.642 188.874 265.308 147.867 241.63 188.586 217.965 229.597 241.642" style="fill:#05d4f5"/><g style="isolation:isolate"><polygon points="210.745 238.115 210.738 240.585 205.906 243.393 205.913 240.922 210.745 238.115" style="fill:#d4d5f0"/><polygon points="205.913 240.922 205.906 243.393 184.303 230.921 184.31 228.45 205.913 240.922" style="fill:#c4c3ec"/><polygon points="210.745 238.115 205.913 240.922 184.31 228.45 189.142 225.642 210.745 238.115" style="fill:#eeeff2"/></g><g style="isolation:isolate"><g style="isolation:isolate"><path d="M186.7027,242.19l-.0069,2.4712q-1.8988-.5251-3.64-.9947t-3.2189-.8426q-1.4783-.3716-2.6005-.6568c-.7494-.19-1.34-.3355-1.7773-.4379l.0073-2.4713c.4364.1029,1.0274.2482,1.7769.4384q1.1213.286,2.6.6568,1.4781.3723,3.2187.8421Q184.804,241.6667,186.7027,242.19Z" style="fill:#1393f2"/><g style="clip-path:url(#clip-path)"><g style="isolation:isolate"><path d="M186.7027,242.19l-.0069,2.4712q-1.8988-.5251-3.64-.9947t-3.2189-.8426q-1.4783-.3716-2.6005-.6568c-.7494-.19-1.34-.3355-1.7773-.4379l.0073-2.4713c.4364.1029,1.0274.2482,1.7769.4384q1.1213.286,2.6.6568,1.4781.3723,3.2187.8421Q184.804,241.6667,186.7027,242.19Z" style="fill:#c4c3ec"/></g></g></g><g style="isolation:isolate"><path d="M194.9,244.6438l-.0069,2.4707q-1.6-.4453-3.184-.8874l.0067-2.4708Q193.2983,244.1988,194.9,244.6438Z" style="fill:#1393f2"/><g style="clip-path:url(#clip-path-2)"><g style="isolation:isolate"><path d="M194.9,244.6438l-.0069,2.4707q-1.6-.4453-3.184-.8874l.0067-2.4708Q193.2983,244.1988,194.9,244.6438Z" style="fill:#c4c3ec"/></g></g></g><g style="isolation:isolate"><path d="M197.9812,245.5317l-.0068,2.4713q-1.4832-.4425-3.0818-.8885l.0069-2.4707Q196.4991,245.0892,197.9812,245.5317Z" style="fill:#1393f2"/><g style="clip-path:url(#clip-path-3)"><g style="isolation:isolate"><path d="M197.9812,245.5317l-.0068,2.4713q-1.4832-.4425-3.0818-.8885l.0069-2.4707Q196.4991,245.0892,197.9812,245.5317Z" style="fill:#c4c3ec"/></g></g></g><polygon points="203.156 242.525 203.149 244.996 197.974 248.003 197.981 245.532 203.156 242.525" style="fill:#d4d5f0"/><polygon points="191.715 243.756 191.709 246.227 183.325 251.099 183.332 248.628 191.715 243.756" style="fill:#d4d5f0"/><g style="isolation:isolate"><path d="M181.4144,255.16l-.0069,2.4707q-2.2812-2.72-4.153-5.062t-3.4528-4.4573q-1.5807-2.1189-2.9228-4.0638t-2.5-3.8717l.0069-2.4712q1.1569,1.9272,2.5009,3.8717,1.3451,1.9463,2.9223,4.0643,1.5747,2.1153,3.4533,4.4573Q179.135,252.4392,181.4144,255.16Z" style="fill:#1393f2"/><g style="clip-path:url(#clip-path-4)"><g style="isolation:isolate"><path d="M181.4144,255.16l-.0069,2.4707q-2.2812-2.72-4.153-5.062t-3.4528-4.4573q-1.5807-2.1189-2.9228-4.0638t-2.5-3.8717l.0069-2.4712q1.1569,1.9272,2.5009,3.8717,1.3451,1.9463,2.9223,4.0643,1.5747,2.1153,3.4533,4.4573Q179.135,252.4392,181.4144,255.16Z" style="fill:#c4c3ec"/></g></g></g><polygon points="186.431 252.244 186.424 254.715 181.408 257.63 181.414 255.16 186.431 252.244" style="fill:#d4d5f0"/><path d="M194.9,244.6438q-1.6-.4462-3.1842-.8875l-8.383,4.8718q.7745.9188,1.5535,1.8417c.5183.6154,1.0366,1.2064,1.5453,1.7745l-5.0167,2.9155q-2.2806-2.721-4.1526-5.062-1.874-2.3421-3.4533-4.4573-1.58-2.119-2.9223-4.0643t-2.5009-3.8717l4.58-2.6619q3.3026.6809,6.6813,1.4428,3.3815.7629,7.0447,1.6682,3.6572.9046,7.71,1.9836,4.0513,1.0759,8.7542,2.3874l-5.1747,3.0071Q196.4971,245.0892,194.9,244.6438Zm-14.3346,1.1127,6.1378-3.5669q-1.899-.5244-3.64-.9948t-3.2187-.8421q-1.4782-.3723-2.6-.6568c-.75-.19-1.34-.3355-1.7769-.4384q.3087.3657.808,1.0148c.3325.4325.7232.9294,1.1639,1.4916q.6651.8448,1.4478,1.8671Q179.6732,244.6536,180.5649,245.7565Z" style="fill:#eeeff2"/></g><path d="M189.2094,342.5552,42.858,258.0587l145.41-84.5029,146.3515,84.496ZM46.7428,258.0533l142.4637,82.251,141.5281-82.2471L188.2708,175.8061Z" style="fill:#05d4f5"/><path d="M65.5561,270.0385l-10.82,6.2459a.5108.5108,0,0,1-.513,0l-11.0972-6.4068L7.1062,290.674,3.749,292.6123a.497.497,0,0,1-.2565.0683.5129.5129,0,0,1-.256-.9572l2.8306-1.634L42.87,268.8419a.5245.5245,0,0,1,.5129,0L54.48,275.2487l10.0508-5.8017Z" style="fill:#05d4f5"/><path d="M152.8121,319.4323l-1.7091.9845-9.846,5.6852a.5106.5106,0,0,1-.5129,0l-11.0934-6.4064-14.0069,8.0852-1.0254.591L93.34,340.6588,90.2735,342.43a.4984.4984,0,0,1-.2565.0682.5129.5129,0,0,1-.2564-.9572l2.7321-1.5759,21.1-12.1842,1.0255-.5915,14.7759-8.53a.5106.5106,0,0,1,.5129,0l11.0933,6.4069,9.0767-5.241,1.7095-.9879Z" style="fill:#05d4f5"/><path d="M119.1381,299.9866l-1.71.9879-9.5724,5.5281a.5272.5272,0,0,1-.513,0L96.25,300.0958l-14.277,8.2427-1.0255.5915L60.4932,320.7416l-3.62,2.0889a.5436.5436,0,0,1-.2566.0683.513.513,0,0,1-.2565-.9572l3.31-1.9115,20.2528-11.6916,1.0254-.5915,15.046-8.6869a.5079.5079,0,0,1,.513,0L107.6,305.4669l8.8035-5.0839,1.71-.9879Z" style="fill:#05d4f5"/><path d="M92.2773,284.4793l-1.7127.9879-36.191,20.895-2.7244,1.5725a.5039.5039,0,0,1-.2564.0688.5131.5131,0,0,1-.2565-.9577l2.263-1.3058,36.1394-20.8677,1.7126-.9879Z" style="fill:#05d4f5"/><path d="M165.1952,326.5808l-1.71.9845-35.6913,20.6082-2.7589,1.5931a.5444.5444,0,0,1-.2565.0683.513.513,0,0,1-.2565-.9572l2.2357-1.2888,35.702-20.6151,1.7091-.9879Z" style="fill:#05d4f5"/><path d="M130.6591,306.6391l-1.7095.988-24.1055,13.9176-1.0254.5915-10.93,6.3146h-.0038l-2.8614,1.6511a.4976.4976,0,0,1-.2564.0683.511.511,0,0,1-.2561-.9538l2.3693-1.3673,10.9159-6.3044,1.0221-.591,24.1053-13.9181,1.7091-.9875Z" style="fill:#05d4f5"/><polygon points="130.133 336.146 116.612 343.951 112.834 346.132 112.321 345.243 115.719 343.281 128.081 336.146 114.618 328.372 113.593 327.781 103.819 322.136 102.797 321.545 80.947 308.93 79.922 308.338 71.037 303.207 95.99 288.599 97.689 287.604 98.711 288.192 97.012 289.187 73.078 303.203 80.947 307.747 81.973 308.338 103.819 320.954 104.844 321.545 114.618 327.189 115.644 327.781 130.133 336.146" style="fill:#05d4f5"/><path d="M6.6732,290.3756c1.5268.8811,1.5268,2.31,0,3.1915a6.109,6.109,0,0,1-5.5286,0c-1.5262-.8812-1.5262-2.31,0-3.1915A6.1059,6.1059,0,0,1,6.6732,290.3756Z" style="fill:#05d4f5"/><path d="M73.8432,288.8415a.5077.5077,0,0,1-.2565.4443L42.5723,307.1931l-2.8375,1.6374a.4942.4942,0,0,1-.2565.0683.5106.5106,0,0,1-.2565-.9533l2.3552-1.361,30.7278-17.743-11.4084-6.5882a.51.51,0,0,1,0-.885l11.2855-6.5161,1.7091-.9884,1.0289.592-1.7125.9874-11.0285,6.3693,11.4078,6.5843A.5119.5119,0,0,1,73.8432,288.8415Z" style="fill:#05d4f5"/><path d="M42.0457,306.8137c1.5266.8811,1.5266,2.31,0,3.192a6.1092,6.1092,0,0,1-5.5287,0c-1.5268-.8817-1.5268-2.3109,0-3.192A6.1092,6.1092,0,0,1,42.0457,306.8137Z" style="fill:#05d4f5"/><path d="M171.8785,344.7475a.512.512,0,0,1-.2565.4447l-30.204,17.4387L137.77,364.737a.5259.5259,0,0,1-.2565.0687.5132.5132,0,0,1-.2565-.9577l3.1763-1.8324,29.9071-17.2681L158.9317,338.16a.5138.5138,0,0,1,0-.8889l10.6838-6.1674,1.7095-.9845,1.0221.5914-1.71.9845-10.4233,6.0207,11.4078,6.5877A.5078.5078,0,0,1,171.8785,344.7475Z" style="fill:#05d4f5"/><path d="M140.8669,362.2272c1.5264.8816,1.5264,2.3108,0,3.1924a6.1115,6.1115,0,0,1-5.5286,0c-1.5268-.8816-1.5268-2.3108,0-3.1924A6.1121,6.1121,0,0,1,140.8669,362.2272Z" style="fill:#05d4f5"/><path d="M53.7874,305.9331c1.5264.8816,1.5264,2.31,0,3.1919a6.109,6.109,0,0,1-5.5286,0c-1.5267-.8816-1.5267-2.31,0-3.1919A6.1115,6.1115,0,0,1,53.7874,305.9331Z" style="fill:#05d4f5"/><path d="M59.6579,320.0233c1.5268.8811,1.5268,2.31,0,3.192a6.1108,6.1108,0,0,1-5.528,0c-1.5274-.8817-1.5274-2.3109,0-3.192A6.1077,6.1077,0,0,1,59.6579,320.0233Z" style="fill:#05d4f5"/><path d="M92.3884,328.0953c1.5267.8821,1.5267,2.3109,0,3.1925a6.1123,6.1123,0,0,1-5.5287,0c-1.5266-.8816-1.5266-2.31,0-3.1925A6.1123,6.1123,0,0,1,92.3884,328.0953Z" style="fill:#05d4f5"/><path d="M92.5351,339.9845c1.5268.8811,1.5268,2.31,0,3.1914a6.1088,6.1088,0,0,1-5.5285,0c-1.5269-.8811-1.5269-2.31,0-3.1914A6.1088,6.1088,0,0,1,92.5351,339.9845Z" style="fill:#05d4f5"/><path d="M115.8717,343.36c1.5266.8816,1.5266,2.3108,0,3.1924a6.1125,6.1125,0,0,1-5.5288,0c-1.5262-.8816-1.5262-2.3108,0-3.1924A6.1119,6.1119,0,0,1,115.8717,343.36Z" style="fill:#05d4f5"/><path d="M127.3652,347.8751c1.5263.8816,1.5263,2.31,0,3.1925a6.1119,6.1119,0,0,1-5.5285,0c-1.5268-.8821-1.5268-2.3109,0-3.1925A6.1119,6.1119,0,0,1,127.3652,347.8751Z" style="fill:#05d4f5"/><path d="M342.6782,305.3743a.513.513,0,0,1-.4447.2564.5349.5349,0,0,1-.2564-.0682l-3.1178-1.7984L308.125,286.0177a.5138.5138,0,0,1,0-.8894l11.4084-6.5877L309.2978,272.63l-1.7062-.9845,1.0192-.5949,1.709.9845,10.4955,6.0616a.5133.5133,0,0,1,0,.8889L309.407,285.573l30.601,17.6679,2.482,1.4326A.513.513,0,0,1,342.6782,305.3743Z" style="fill:#05d4f5"/><path d="M236.5163,366.8225a.5138.5138,0,0,1-.4443.2565.5338.5338,0,0,1-.2564-.0683l-3.0223-1.7437-30.83-17.801a.52.52,0,0,1-.2565-.4447.5142.5142,0,0,1,.2565-.4442l11.4078-6.5882-10.0234-5.7881-1.7022-.9845,1.0219-.5949,1.7024.9845,10.2838,5.9387a.5138.5138,0,0,1,0,.889l-11.4083,6.5877,30.7409,17.75,2.342,1.3507A.5131.5131,0,0,1,236.5163,366.8225Z" style="fill:#05d4f5"/><path d="M288.8573,333.8249a.5172.5172,0,0,1-.4447.2565.487.487,0,0,1-.256-.0683l-2.8346-1.6374-23.3256-13.4666a.5132.5132,0,0,1,0-.8889l8.6494-4.9947-7.7913-4.5812-1.0157-.5983-6.53-3.8424-1.6891-.9953,1.019-.591,1.6886.9943,6.5337,3.8434,1.0152.5978,8.0476,4.7348a.517.517,0,0,1,.2531.4447.5251.5251,0,0,1-.2565.4447l-8.6425,4.9879,23.4321,13.528h.0033l1.9554,1.1313A.5171.5171,0,0,1,288.8573,333.8249Z" style="fill:#05d4f5"/><path d="M331.2256,332.4678a.5137.5137,0,0,1-.4442.2565.5286.5286,0,0,1-.2566-.0687l-3.0189-1.7433-42.529-24.557a.5129.5129,0,0,1,0-.8884l15.617-9.0151L284.4,287.0978l-1.7061-.9845,1.0185-.5915,1.7058.9845,16.4581,9.5008a.5134.5134,0,0,1,0,.8889l-15.617,9.0151,42.4336,24.5019,2.3449,1.3541A.5133.5133,0,0,1,331.2256,332.4678Z" style="fill:#05d4f5"/><path d="M285.5888,345.2912a.5138.5138,0,0,1-.7007.1882l-2.5951-1.4974-30.1016-17.3807-16.6083,9.59a.51.51,0,0,1-.5126,0L217.44,326.01l-1.7027-.9845,1.0186-.5915,1.7028.9845,16.8682,9.7368,16.6078-9.5895a.5079.5079,0,0,1,.513,0l30.8745,17.8249,2.0787,1.2A.5109.5109,0,0,1,285.5888,345.2912Z" style="fill:#05d4f5"/><path d="M330.7637,304.4785a.5128.5128,0,0,1-.4442.2565.5432.5432,0,0,1-.2565-.0683l-2.9267-1.6891-35.144-20.29L290.286,281.7l1.0221-.592,1.7061.985,35.2232,20.3342,2.3387,1.3507A.51.51,0,0,1,330.7637,304.4785Z" style="fill:#05d4f5"/><path d="M357.9221,288.568a.5138.5138,0,0,1-.4442.2565.5333.5333,0,0,1-.2564-.0688l-3.2207-1.86-34.7376-20.0577-1.71-.9845,1.0226-.5949,1.71.985,34.6994,20.0373,2.7492,1.5857A.5136.5136,0,0,1,357.9221,288.568Z" style="fill:#05d4f5"/><path d="M299.1953,322.4409a.5179.5179,0,0,1-.4447.2565.4888.4888,0,0,1-.256-.0688l-3.1759-1.8324L268.39,305.248l-1.026-.5915-6.6081-3.819-1.7063-.9846,1.0227-.5914,1.7057.985,6.612,3.8151,1.0254.5949,26.8338,15.49,2.7585,1.593A.5172.5172,0,0,1,299.1953,322.4409Z" style="fill:#05d4f5"/><path d="M248.222,352.1564a.5141.5141,0,0,1-.7007.1877l-2.95-1.7022h-.0038L209.7,330.5091l-1.7028-.985,1.0221-.5949,1.7027.9845,34.9463,20.1742,2.3658,1.3673A.5122.5122,0,0,1,248.222,352.1564Z" style="fill:#05d4f5"/><polygon points="285.828 295.18 269.415 304.656 268.39 305.248 263.877 307.853 262.855 308.444 242.277 320.325 239.204 322.099 238.691 321.21 241.429 319.631 261.839 307.846 262.861 307.255 267.364 304.656 268.39 304.062 283.777 295.18 277.114 291.334 275.408 290.346 276.43 289.754 278.136 290.739 285.828 295.18" style="fill:#05d4f5"/><path d="M238.3981,365.2178c1.5266.8811,1.5266,2.31,0,3.1919a6.1123,6.1123,0,0,1-5.5287,0c-1.5268-.8816-1.5268-2.3108,0-3.1919A6.1086,6.1086,0,0,1,238.3981,365.2178Z" style="fill:#05d4f5"/><path d="M250.4041,350.4405c1.5268.8816,1.5268,2.31,0,3.1924a6.1121,6.1121,0,0,1-5.5286,0c-1.5267-.8821-1.5267-2.3108,0-3.1924A6.1115,6.1115,0,0,1,250.4041,350.4405Z" style="fill:#05d4f5"/><path d="M241.4763,319.6551c1.5268.8817,1.5268,2.3109,0,3.192a6.1088,6.1088,0,0,1-5.5285,0c-1.5268-.8811-1.5268-2.31,0-3.192A6.1088,6.1088,0,0,1,241.4763,319.6551Z" style="fill:#05d4f5"/><path d="M288.27,343.6679c1.5266.8812,1.5266,2.3109,0,3.192a6.1092,6.1092,0,0,1-5.5287,0c-1.5268-.8811-1.5268-2.3108,0-3.192A6.1092,6.1092,0,0,1,288.27,343.6679Z" style="fill:#05d4f5"/><path d="M290.425,332.5848c1.5272.8817,1.5272,2.3109,0,3.192a6.1092,6.1092,0,0,1-5.5287,0c-1.5262-.8811-1.5262-2.31,0-3.192A6.1123,6.1123,0,0,1,290.425,332.5848Z" style="fill:#05d4f5"/><path d="M301.5144,320.2827c1.5273.8816,1.5273,2.31,0,3.192a6.1077,6.1077,0,0,1-5.528,0c-1.5268-.8816-1.5268-2.31,0-3.192A6.1108,6.1108,0,0,1,301.5144,320.2827Z" style="fill:#05d4f5"/><path d="M333.1371,330.8523c1.5267.8812,1.5267,2.31,0,3.192a6.1094,6.1094,0,0,1-5.5288,0c-1.5267-.8816-1.5267-2.3108,0-3.192A6.1094,6.1094,0,0,1,333.1371,330.8523Z" style="fill:#05d4f5"/><ellipse cx="330.1996" cy="304.378" rx="3.9092" ry="2.2571" style="fill:#05d4f5"/><path d="M344.5731,303.6486c1.5267.8811,1.5267,2.31,0,3.1919a6.109,6.109,0,0,1-5.5286,0c-1.5268-.8816-1.5268-2.3108,0-3.1919A6.109,6.109,0,0,1,344.5731,303.6486Z" style="fill:#05d4f5"/><path d="M360.0808,286.4946c1.5268.8812,1.5268,2.31,0,3.192a6.109,6.109,0,0,1-5.5286,0c-1.5262-.8816-1.5262-2.3108,0-3.192A6.109,6.109,0,0,1,360.0808,286.4946Z" style="fill:#05d4f5"/><path d="M151.3219,163.2168a.5181.5181,0,0,1-.25.4447l-8.1194,4.8645-1.0087.6056-10.1909,6.1055-1.0055.6017-9.5553,5.7261,26.8507,15.5043,1.7063.9845-1.0221.5949-1.71-.9845L119.9243,182.02a.5226.5226,0,0,1-.2566-.4409.5141.5141,0,0,1,.25-.4447l9.8119-5.88,1.0085-.6051,10.1911-6.1055,1.005-.6056,7.8634-4.71L134.7307,154.53l-2.55-1.4731a.5117.5117,0,1,1,.5124-.886l3.0188,1.7437,15.3538,8.8615A.522.522,0,0,1,151.3219,163.2168Z" style="fill:#05d4f5"/><path d="M59.5257,249.4985,33.1568,234.275l11.4088-6.5877a.5138.5138,0,0,0,0-.8889L29.072,217.855l-2.8788-1.6614a.5132.5132,0,0,0-.5131.889l2.1948,1.2683,15.4083,8.8922-11.4084,6.5877a.513.513,0,0,0,0,.8885l26.6289,15.3741Z" style="fill:#05d4f5"/><path d="M113.1794,219.3081,112.16,219.9l-1.7091-.985L92.1094,208.3235a.51.51,0,0,1,0-.885l8.6494-4.9952L79.5938,189.989l-2.0071-1.183a.51.51,0,0,1-.1844-.7007.5161.5161,0,0,1,.7042-.1814l2.5571,1.5078,21.3742,12.5742a.5119.5119,0,0,1-.0038.885l-8.6425,4.9918,18.0818,10.437Z" style="fill:#05d4f5"/><path d="M136.098,205.9888l-1.0221.5914-1.7055-.9849-28.53-16.4713a.5134.5134,0,0,1,0-.889l12.5947-7.2713-16.0032-9.2409-3.3846-1.9558a.5115.5115,0,1,1,.513-.8851l3.8629,2.2289,16.2938,9.4082a.5133.5133,0,0,1,0,.8889L106.1227,188.68,134.3923,205Z" style="fill:#05d4f5"/><path d="M100.2668,226.8086l-1.0225.5949-1.7057-.9845L78.9131,215.667l-13.3193,7.6888a.5094.5094,0,0,1-.5125,0l-18.02-10.4034-2.2191-1.2819a.5132.5132,0,0,1,.513-.8889l2.6531,1.5316L65.3372,222.32l13.32-7.6883a.5075.5075,0,0,1,.5125,0l19.3911,11.1928Z" style="fill:#05d4f5"/><path d="M160.477,191.8215l-1.0221.5949-1.71-.9879-26.9976-15.59-1.0186-.5847L121.367,170.42h-.0033l-2.171-1.2512a.5131.5131,0,1,1,.5125-.889l2.8,1.617,8.232,4.7518,1.0156.5881,27.018,15.5965Z" style="fill:#05d4f5"/><path d="M171.8648,185.203l-1.022.5949-1.7091-.985-27.19-15.6813-1.0154-.5881-31.4485-18.14-1.631-.94a.5131.5131,0,0,1,.5129-.8889l2.39,1.3775,31.1817,17.9858,1.0191.5881,27.2028,15.692Z" style="fill:#05d4f5"/><path d="M130.5529,209.209l-1.0222.5949-1.7056-.9845-36.04-20.8062h-.0035l-2.41-1.3951a.5132.5132,0,0,1,.513-.8889l3.0223,1.7437,35.9409,20.7516Z" style="fill:#05d4f5"/><path d="M79.8975,238.6475l-1.0221.5949-1.7056-.9845-16.092-9.2921L57.2217,226.74a.5131.5131,0,0,1,.5125-.889l4.42,2.55,16.0373,9.2613Z" style="fill:#05d4f5"/><path d="M29,214.7088c1.5268.8817,1.5268,2.31,0,3.192a6.109,6.109,0,0,1-5.5286,0c-1.5267-.8816-1.5267-2.31,0-3.192A6.1121,6.1121,0,0,1,29,214.7088Z" style="fill:#05d4f5"/><path d="M61.7922,225.4511c1.5267.8811,1.5267,2.31,0,3.1919a6.11,6.11,0,0,1-5.5281,0c-1.5268-.8816-1.5268-2.3108,0-3.1919A6.108,6.108,0,0,1,61.7922,225.4511Z" style="fill:#05d4f5"/><path d="M47.3744,209.6006c1.5266.8811,1.5266,2.31,0,3.1919a6.1092,6.1092,0,0,1-5.5287,0c-1.5268-.8816-1.5268-2.3108,0-3.1919A6.1086,6.1086,0,0,1,47.3744,209.6006Z" style="fill:#05d4f5"/><path d="M80.3134,186.4708c1.5269.8812,1.5269,2.31,0,3.1915a6.1057,6.1057,0,0,1-5.5285,0c-1.5268-.8811-1.5268-2.31,0-3.1915A6.1088,6.1088,0,0,1,80.3134,186.4708Z" style="fill:#05d4f5"/><path d="M53.4325,202.0171c1.5262.8816,1.5262,2.3108,0,3.192a6.1092,6.1092,0,0,1-5.5287,0c-1.5272-.8812-1.5272-2.31,0-3.192A6.1123,6.1123,0,0,1,53.4325,202.0171Z" style="fill:#05d4f5"/><path d="M107.0154,222.8872l-1.0225.5949-1.7057-.9845-42.67-24.6355-7.7364,4.4651-2.9161,1.6818a.5116.5116,0,0,1-.7007-.1877.5185.5185,0,0,1,.1878-.7012l2.3966-1.3844,8.5128-4.9127a.5263.5263,0,0,1,.5125,0l43.4352,25.08Z" style="fill:#05d4f5"/><path d="M178.316,181.4523l-1.0225.5949-1.7091-.9845L157.0412,170.355a.5129.5129,0,0,1,0-.8884l8.6494-4.9952-21.1651-12.4542-2.01-1.18a.5134.5134,0,0,1,.52-.8855l2.56,1.5043,21.3738,12.5776a.5162.5162,0,0,1,.2531.4447.5227.5227,0,0,1-.256.4443l-8.6425,4.9878,18.2863,10.557Z" style="fill:#05d4f5"/><path d="M145.2428,148.5009c1.5267.8812,1.5267,2.31,0,3.192a6.1121,6.1121,0,0,1-5.5286,0c-1.5268-.8816-1.5268-2.3108,0-3.192A6.109,6.109,0,0,1,145.2428,148.5009Z" style="fill:#05d4f5"/><path d="M92.6551,184.4433c1.5273.8812,1.5273,2.31,0,3.192a6.1113,6.1113,0,0,1-5.5282,0c-1.5267-.8816-1.5267-2.3108,0-3.192A6.1082,6.1082,0,0,1,92.6551,184.4433Z" style="fill:#05d4f5"/><path d="M101.8848,168.3105c1.5262.8811,1.5262,2.31,0,3.1919a6.1123,6.1123,0,0,1-5.5287,0c-1.5268-.8816-1.5268-2.3108,0-3.1919A6.1086,6.1086,0,0,1,101.8848,168.3105Z" style="fill:#05d4f5"/><path d="M110.8769,146.6953c1.5267.8816,1.5267,2.3108,0,3.1924a6.11,6.11,0,0,1-5.5281,0c-1.5268-.8816-1.5268-2.3108,0-3.1924A6.111,6.111,0,0,1,110.8769,146.6953Z" style="fill:#05d4f5"/><path d="M135.1541,151.1292c1.5266.8811,1.5266,2.31,0,3.1915a6.1094,6.1094,0,0,1-5.5288,0c-1.5267-.8812-1.5267-2.31,0-3.1915A6.1063,6.1063,0,0,1,135.1541,151.1292Z" style="fill:#05d4f5"/><path d="M122.313,166.8252c1.5268.8816,1.5268,2.3108,0,3.1919a6.1077,6.1077,0,0,1-5.528,0c-1.5273-.8811-1.5273-2.31,0-3.1919A6.11,6.11,0,0,1,122.313,166.8252Z" style="fill:#05d4f5"/><path d="M323.9468,222.0187a.5216.5216,0,0,1-.256.4413l-25.48,14.711-1.7058.9845-1.0259-.5915,1.7056-.9879,25.2373-14.571L299.26,208.1289l-1.005-.6056-5.7124-3.4216a.5066.5066,0,0,1-.25-.4447.5133.5133,0,0,1,.2566-.4408l15.35-8.8615,3.0222-1.7438a.507.507,0,0,1,.6972.1883.5126.5126,0,0,1-.1843.7007l-2.5468,1.47-15.07,8.7006,5.4525,3.2685,1.0089.6018,23.4178,14.0336A.5249.5249,0,0,1,323.9468,222.0187Z" style="fill:#05d4f5"/><path d="M299.5342,189.6984l-2.0071,1.18-21.165,12.4543,8.6488,4.9947a.5132.5132,0,0,1,0,.8889l-17.61,10.1674-1.7061.9845-1.025-.5915,1.7056-.9845,17.3534-10.02-8.6426-4.9879a.5151.5151,0,0,1-.0033-.8889l21.3737-12.5776,2.5576-1.5043a.5134.5134,0,1,1,.52.8855Z" style="fill:#05d4f5"/><path d="M277.6674,167.4766l-3.2885,1.9008-16.5229,9.5383,12.875,7.4323a.5133.5133,0,0,1,0,.8889l-29.5038,17.032-1.7056.9879-1.0256-.5914,1.7062-.9841,29.2469-16.8891-12.875-7.4323a.5129.5129,0,0,1,0-.8884l16.9056-9.7607,3.6752-2.1226a.5128.5128,0,1,1,.5125.8884Z" style="fill:#05d4f5"/><path d="M351.4915,232.1451l-2.1983,1.2683-14.8714,8.5845a.5075.5075,0,0,1-.5128,0l-11.19-6.4614-13.668,7.8907-1.71.9879-1.0253-.5949,1.7095-.9845,14.4374-8.3349a.51.51,0,0,1,.5126,0l11.1893,6.4614,14.0029-8.0822,2.81-1.6238a.5132.5132,0,1,1,.5131.8889Z" style="fill:#05d4f5"/><path d="M256.892,170.2322l-2.171,1.2512h-.0034l-35.1339,20.29-1.7095.9845-1.0256-.5915,1.7057-.9845L253.58,170.96l2.8-1.617a.5131.5131,0,0,1,.5126.889Z" style="fill:#05d4f5"/><path d="M269.2716,150.3554l-1.6277.9406-59.1164,34.0948-1.71.9845-1.0255-.5915,1.7063-.9845,58.87-33.9544,2.39-1.378a.513.513,0,1,1,.5129.8885Z" style="fill:#05d4f5"/><path d="M287.75,187.507l-2.4172,1.3946-35.36,20.4166-1.71.985-1.0256-.5915,1.7057-.9845,35.268-20.362,3.0257-1.7471a.5131.5131,0,0,1,.5126.8889Z" style="fill:#05d4f5"/><path d="M249.4324,187.0453l-3.8562,2.2254L230.41,198.0264l-1.7056.9845-1.0256-.5914,1.7062-.9845,15.1206-8.7279,4.4134-2.55a.513.513,0,1,1,.5131.8885Z" style="fill:#05d4f5"/><ellipse cx="247.6277" cy="187.351" rx="3.9092" ry="2.2572" style="fill:#05d4f5"/><path d="M348.3994,229.8348c-1.5267.8811-1.5267,2.31,0,3.1914a6.1088,6.1088,0,0,0,5.5288,0c1.5261-.8811,1.5261-2.31,0-3.1914A6.1094,6.1094,0,0,0,348.3994,229.8348Z" style="fill:#05d4f5"/><path d="M296.8079,187.3612c-1.5267.8816-1.5267,2.3109,0,3.192a6.109,6.109,0,0,0,5.5286,0c1.5264-.8811,1.5264-2.31,0-3.192A6.109,6.109,0,0,0,296.8079,187.3612Z" style="fill:#05d4f5"/><path d="M323.689,202.908c-1.5269.8816-1.5269,2.3108,0,3.1919a6.1084,6.1084,0,0,0,5.5286,0c1.5267-.8811,1.5267-2.31,0-3.1919A6.109,6.109,0,0,0,323.689,202.908Z" style="fill:#05d4f5"/><path d="M326.8565,204.7136a.5142.5142,0,0,1-.7008.1878l-2.9129-1.6818-7.74-4.4686-15.2235,8.79-1.0192.588L273.5856,222.952l-1.7091.985-1.0221-.5914,1.7058-.9845,25.6949-14.8378,1.0153-.5842,15.9758-9.2238a.511.511,0,0,1,.5131,0l8.5123,4.9162,2.3966,1.3814A.5163.5163,0,0,1,326.8565,204.7136Z" style="fill:#05d4f5"/><path d="M234.6053,151.73l-2.0032,1.18L211.43,165.3638l8.6494,4.9947a.5134.5134,0,0,1,0,.8889l-18.0269,10.4067-1.7061.9845-6.4269,3.7094a.4921.4921,0,0,1-.2529.0716.5138.5138,0,0,1-.26-.9572l5.9143-3.4152,1.71-.9845,17.767-10.26-8.6427-4.9913a.5214.5214,0,0,1-.2565-.4413.5129.5129,0,0,1,.2531-.4442l21.3738-12.5777,2.561-1.5038a.5131.5131,0,0,1,.5193.8851Z" style="fill:#05d4f5"/><path d="M231.8786,149.3913c-1.5273.8816-1.5273,2.31,0,3.192a6.108,6.108,0,0,0,5.5281,0c1.5267-.8816,1.5267-2.31,0-3.192A6.111,6.111,0,0,0,231.8786,149.3913Z" style="fill:#05d4f5"/><path d="M284.4658,185.3337c-1.5268.8811-1.5268,2.31,0,3.192a6.109,6.109,0,0,0,5.5286,0c1.5262-.8816,1.5262-2.3109,0-3.192A6.109,6.109,0,0,0,284.4658,185.3337Z" style="fill:#05d4f5"/><ellipse cx="276.9647" cy="167.6882" rx="3.909" ry="2.2572" style="fill:#05d4f5"/><path d="M266.2439,147.5862c-1.5267.8816-1.5267,2.31,0,3.1919a6.1092,6.1092,0,0,0,5.5287,0c1.5268-.8816,1.5268-2.31,0-3.1919A6.1117,6.1117,0,0,0,266.2439,147.5862Z" style="fill:#05d4f5"/><path d="M308.46,191.57c-1.5266.8816-1.5266,2.3108,0,3.1919a6.1092,6.1092,0,0,0,5.5287,0c1.5267-.8811,1.5267-2.31,0-3.1919A6.1092,6.1092,0,0,0,308.46,191.57Z" style="fill:#05d4f5"/><path d="M253.7716,167.8887c-1.5267.8816-1.5267,2.31,0,3.1919a6.1094,6.1094,0,0,0,5.5288,0c1.5266-.8816,1.5266-2.31,0-3.1919A6.1119,6.1119,0,0,0,253.7716,167.8887Z" style="fill:#05d4f5"/><g style="isolation:isolate"><g style="isolation:isolate"><path d="M136.2745,185.2362l-8.49-4.9342a4.34,4.34,0,0,1-1.888-3.2993l8.49,4.9338A4.34,4.34,0,0,0,136.2745,185.2362Z" style="fill:#dad9e8"/><g style="clip-path:url(#clip-path-5)"><g style="isolation:isolate"><path d="M136.2745,185.2362l-8.49-4.9342a4.3234,4.3234,0,0,1-1.8831-3.269l8.49,4.9342A4.3253,4.3253,0,0,0,136.2745,185.2362Z" style="fill:#dad9e8"/><path d="M134.3913,181.9672l-8.49-4.9342-.0049-.03,8.49,4.9338Z" style="fill:#dad9e8"/></g></g></g><path d="M143.579,96.6588l8.49,4.9342c-2.4776-1.44-5.9118-1.26-9.7573.96l-8.49-4.9342C137.6672,95.3988,141.1015,95.2193,143.579,96.6588Z" style="fill:#dad9e8"/><g style="clip-path:url(#clip-path-6)"><g style="isolation:isolate"><path d="M142.3122,102.5531l-8.49-4.9342c3.8454-2.22,7.28-2.4,9.7572-.96l8.49,4.9342C149.5919,100.1535,146.1577,100.333,142.3122,102.5531Z" style="fill:#dad9e8"/></g></g><polygon points="134.387 181.936 125.896 177.003 117.737 125.243 126.228 130.178 134.387 181.936" style="fill:#dad9e8"/><polygon points="139.724 104.048 131.234 99.113 133.822 97.619 142.312 102.553 139.724 104.048" style="fill:#ebebf1"/><g style="isolation:isolate"><path d="M126.2276,130.1777l-8.49-4.9342c-1.3887-8.8079,5.0357-21.2456,13.4963-26.13l8.49,4.9343C131.2634,108.9321,124.8389,121.37,126.2276,130.1777Z" style="fill:#ebebf1"/><g style="clip-path:url(#clip-path-7)"><g style="isolation:isolate"><path d="M126.2276,130.1777l-8.49-4.9342a20.6882,20.6882,0,0,1,.7379-8.7265l8.49,4.9343A20.6885,20.6885,0,0,0,126.2276,130.1777Z" style="fill:#ebebf1"/><path d="M126.9654,121.4513l-8.49-4.9343a32.6621,32.6621,0,0,1,4.7986-9.8781l8.49,4.9342A32.6639,32.6639,0,0,0,126.9654,121.4513Z" style="fill:#ebebf1"/><path d="M131.764,111.5731l-8.49-4.9342a28.3018,28.3018,0,0,1,5.6743-5.989l8.49,4.9338A28.3144,28.3144,0,0,0,131.764,111.5731Z" style="fill:#ebebf1"/><path d="M137.4385,105.5837l-8.49-4.9338a20.8213,20.8213,0,0,1,2.2855-1.5365l8.49,4.9343A20.7867,20.7867,0,0,0,137.4385,105.5837Z" style="fill:#ebebf1"/></g></g></g><path d="M142.3122,102.5531c8.46-4.8845,14.93.1083,13.5963,10.4882l-7.8356,60.9933a14.9135,14.9135,0,0,1-6.8242,10.636c-3.1056,1.7929-6.2171,1.3575-6.8621-2.7341l-8.159-51.7588c-1.3887-8.8079,5.0358-21.2456,13.4963-26.13Z" style="fill:#c4c3ec"/></g><g style="isolation:isolate"><g style="isolation:isolate"><path d="M151.7047,102.9924l5.9134,3.4368c-2.51-1.459-5.9864-1.2537-9.8236.9616l-5.9133-3.4363C145.7177,101.7388,149.1941,101.534,151.7047,102.9924Z" style="fill:#05d4f5"/><g style="clip-path:url(#clip-path-8)"><g style="isolation:isolate"><path d="M147.7945,107.3908l-5.9133-3.4363c3.8365-2.2157,7.3129-2.42,9.8235-.9621l5.9134,3.4368C155.1078,104.97,151.6317,105.1755,147.7945,107.3908Z" style="fill:#05d4f5"/></g></g></g><path d="M149.1653,113.1676c5.2233-3.0193,9.4831-.5891,9.4973,5.4169.02,6.0017-4.2111,13.33-9.436,16.3436-5.2248,3.02-9.4871.5939-9.5012-5.41C139.7054,123.5168,143.9409,116.1806,149.1653,113.1676Z" style="fill:#05d4f5"/><g style="isolation:isolate"><path d="M138.0553,140.091l-5.9138-3.4363c-2.478-1.44-4.0151-4.5026-4.0273-8.8551-.0249-8.764,6.14-19.4419,13.767-23.8451l5.9133,3.4363c-7.6268,4.4037-13.7918,15.0815-13.7669,23.8455C134.04,135.5888,135.5767,138.651,138.0553,140.091Z" style="fill:#05d4f5"/><g style="clip-path:url(#clip-path-9)"><g style="isolation:isolate"><path d="M138.0553,140.091l-5.9138-3.4363c-2.2007-1.279-3.6591-3.837-3.9668-7.4425l5.9138,3.4367C134.3957,136.2539,135.8542,138.812,138.0553,140.091Z" style="fill:#05d4f5"/><path d="M134.0885,132.6489l-5.9138-3.4367q-.0585-.6817-.06-1.4126c-.0214-7.5562,4.5588-16.5362,10.71-21.6893l5.9139,3.4367c-6.1519,5.1532-10.732,14.1327-10.7106,21.6893Q134.03,131.967,134.0885,132.6489Z" style="fill:#05d4f5"/><path d="M144.7382,109.547l-5.9139-3.4367a21.5881,21.5881,0,0,1,3.0569-2.1558l5.9133,3.4363A21.5578,21.5578,0,0,0,144.7382,109.547Z" style="fill:#05d4f5"/></g></g></g><g style="isolation:isolate"><path d="M149.1653,113.1676l-1.3708-5.7768c7.6269-4.4032,13.8284-.8651,13.8534,7.8989s-6.1363,19.4355-13.7631,23.8387-13.8323.8719-13.8572-7.8921,6.14-19.4418,13.7669-23.8455l1.3708,5.7768c-5.2244,3.013-9.46,10.3492-9.44,16.35.0141,6.0041,4.2764,8.43,9.5012,5.41,5.2249-3.0135,9.4559-10.3419,9.436-16.3436C158.6484,112.5785,154.3886,110.1483,149.1653,113.1676Z" style="fill:#05d4f5"/><g style="clip-path:url(#clip-path-10)"><g style="isolation:isolate"><path d="M149.1653,113.1676l-1.3708-5.7768c7.6269-4.4032,13.8284-.8651,13.8534,7.8989s-6.1363,19.4355-13.7631,23.8387-13.8323.8719-13.8572-7.8921,6.14-19.4418,13.7669-23.8455l1.3708,5.7768c-5.2244,3.013-9.46,10.3492-9.44,16.35.0141,6.0041,4.2764,8.43,9.5012,5.41,5.2249-3.0135,9.4559-10.3419,9.436-16.3436C158.6484,112.5785,154.3886,110.1483,149.1653,113.1676Z" style="fill:#12b0f3"/></g></g></g></g><path d="M146.929,58.1627,131.6031,8.1218Z" style="fill:#1393f2"/><rect x="137.7602" y="6.9747" width="3.0118" height="52.3352" transform="translate(-3.6002 42.2355) rotate(-17.028)" style="fill:#171c29"/><path d="M165.1854,215.2979a39.95,39.95,0,0,1-18.5758-25.33c1.0937,4.7781,4.8323,9.53,11.2123,13.37,15.94,9.5934,42.3307,9.8606,58.9453.5963,7.1349-3.9784,11.3064-9.0677,12.4816-14.3394a39.8075,39.8075,0,0,1-8.9439,17.5987,41.6394,41.6394,0,0,1-15.87,11.1533C191.7977,223.4172,176.3915,222.22,165.1854,215.2979Z" style="fill:#919dd6"/><path d="M217.036,101.3526c15.5388,9.3525,15.0059,24.2551-1.19,33.2863s-41.9236,8.7713-57.4626-.5812-15.0064-24.2552,1.19-33.2864S201.4969,92.0005,217.036,101.3526Z" style="fill:#e4e3ee"/><g style="isolation:isolate"><path d="M146.5784,189.8325l-12.5313-54.7533c1.4609,6.3839,6.319,12.5587,14.6095,17.5485,20.7126,12.4659,55.0049,12.8126,76.5937.7748,9.2716-5.17,14.6926-11.7833,16.22-18.6339l-12.2207,54.825c-1.1752,5.2721-5.3472,10.3614-12.4821,14.34-16.6146,9.2643-43.0055,8.9971-58.9453-.5963C151.4414,199.4976,147.7028,194.7452,146.5784,189.8325Z" style="fill:#b7b6e3"/></g><path d="M152.9121,99.898c21.1607-11.4863,51.1229-11.1455,71.244.81-1.7949-1.0805-4.3037-.9962-7.12.5745-15.5391-9.3521-41.2658-9.6125-57.4626-.5813s-16.73,23.9343-1.19,33.2863,41.2658,9.6125,57.4626.5813,16.7291-23.9338,1.19-33.2863c2.8164-1.5707,5.3252-1.655,7.12-.5749,4.213,2.7243,10.58,6.8412,15.01,15.5033a28.1192,28.1192,0,0,1,2.3409,18.4261c-1.5739,7.031-6.9934,13.6368-16.2567,18.8021-21.5888,12.0379-55.8811,11.6912-76.5937-.7748-8.2821-4.9849-13.1394-11.1523-14.6055-17.53a27.9614,27.9614,0,0,1-.5116-9.5324,28.6312,28.6312,0,0,1,2.7677-9.2209C137.849,113.5016,141.9437,105.8518,152.9121,99.898Z" style="fill:#dad9e8"/><path d="M210.2629,33.7706c11.9189,7.1738,11.51,18.6051-.9133,25.5322s-32.157,6.7277-44.0764-.4457-11.51-18.6046.9133-25.5322S198.3436,26.5972,210.2629,33.7706Z" style="fill:#ebebf1"/><g style="isolation:isolate"><path d="M149.528,119.3048c-19.1854-11.8731-23.3968-27.5841-23.5519-38.6736.0253,8.9059,5.745,17.8093,17.23,24.7213,23.6632,14.2419,62.84,14.6383,87.5047.8855C243.4044,99.16,249.78,89.7136,249.7532,80.27a41.5963,41.5963,0,0,1-2.8643,15.2976,45.8385,45.8385,0,0,1-6.8467,11.7491c-.82,1.0865-8.4293,10.7828-23.1232,16.5059C191.4422,133.7451,164.7144,128.7031,149.528,119.3048Z" style="fill:#b7b6e3"/></g><path d="M151.2976,31.5348a75.4043,75.4043,0,0,1,37.4949-8.9541c14.0128.1789,26.5905,3.5138,37.3834,9.9113-4.0405-2.4317-9.6808-2.1967-15.913,1.2786-11.9193-7.1734-31.6533-7.3733-44.0764-.4457s-12.8327,18.3583-.9133,25.5322,31.6528,7.3733,44.0764.4457,12.8322-18.3584.9133-25.5322c6.2322-3.4753,11.8725-3.71,15.913-1.2786,5.6886,3.6728,22.9995,14.848,23.5515,38.6736.0267,9.4437-6.3488,18.89-19.0426,25.9676-24.6642,13.7528-63.8414,13.3564-87.5046-.885-11.4849-6.9125-17.2046-15.8159-17.23-24.7218a42.7276,42.7276,0,0,1,1.7871-12.1817,43.381,43.381,0,0,1,5.8982-12.1563C135.6572,43.9993,141.9494,36.6236,151.2976,31.5348Z" style="fill:#e4e3ee"/><path d="M200.0126,106.475c-20.0406,2.3552-41.6358-1.081-56.8324-10.2268-11.4206-6.8735-17.14-15.7155-17.2291-24.5711a22.208,22.208,0,0,1,6.3366-15.31c.08,7.9423,5.21,15.873,15.4528,22.0379,13.63,8.2033,32.999,11.285,50.9737,9.1726A163.87,163.87,0,0,1,200.0126,106.475Z" style="fill:#042f8f"/><g style="isolation:isolate"><path d="M125.9761,80.6312l-.0259-9.1048c.0254,8.9059,5.7451,17.8093,17.23,24.7218,23.6632,14.2414,62.84,14.6378,87.5046.885,12.6938-7.0778,19.0693-16.5239,19.0426-25.9676l.0258,9.1048c.0269,9.4432-6.3488,18.8894-19.0425,25.9676-24.6643,13.7528-63.8415,13.3564-87.5047-.8855C131.7211,98.4405,126.0014,89.5371,125.9761,80.6312Z" style="fill:#dad9e8"/></g><path d="M136.0068,80.8955c-1.2171,3.4377-3.3007,3.6679-4.7439.5237-2.41-5.25.0447-11.5926,3.1713-10.6881a2.4332,2.4332,0,0,1,1.1835.8387C137.6218,74.4175,136.5427,79.381,136.0068,80.8955Z" style="fill:#05d4f5"/><path d="M171.0872,96.4593c-.9149,5.1625-7.4012,6.0309-10.6775,1.43-3.4207-4.804.3282-10.338,5.1161-9.7431.1765.022.4086.0732.5843.1049A7.2981,7.2981,0,0,1,171.0872,96.4593Z" style="fill:#05d4f5"/><path d="M228.8855,74.2615c0-3.0559-2.1455-4.295-4.7923-2.7668a10.593,10.593,0,0,0-4.7923,8.3007c0,3.056,2.1461,4.295,4.7928,2.7668A10.5918,10.5918,0,0,0,228.8855,74.2615Z" style="fill:#1393f2"/><path d="M224.7169,77.095l34.9349-26.2188Z" style="fill:#1393f2"/><path d="M224.7184,78.6008a1.5058,1.5058,0,0,1-.9051-2.71l34.9346-26.2188a1.5058,1.5058,0,0,1,1.8076,2.4089L225.6209,78.2989A1.4958,1.4958,0,0,1,224.7184,78.6008Z" style="fill:#171c29"/><path d="M268.52,48.9955a8.1218,8.1218,0,1,0-8.1219,8.1218A8.1217,8.1217,0,0,0,268.52,48.9955Z" style="fill:#1393f2"/><path d="M138.9857,8.1218a8.1216,8.1216,0,1,0-8.1218,8.1218A8.1217,8.1217,0,0,0,138.9857,8.1218Z" style="fill:#1393f2"/><g style="isolation:isolate"><g style="isolation:isolate"><path d="M236.0725,132.15l5.9139,3.4367c-2.51-1.4589-5.9864-1.2536-9.8236.9616l-5.9138-3.4367C230.086,130.8964,233.5623,130.6911,236.0725,132.15Z" style="fill:#05d4f5"/><g style="clip-path:url(#clip-path-11)"><g style="isolation:isolate"><path d="M232.1628,136.5484l-5.9138-3.4367c3.837-2.2153,7.3133-2.4206,9.8235-.9616l5.9139,3.4367C239.4761,134.1279,236,134.3332,232.1628,136.5484Z" style="fill:#05d4f5"/></g></g></g><path d="M233.533,142.3252c5.2239-3.0193,9.4837-.589,9.4979,5.417.0195,6.0016-4.2111,13.33-9.436,16.3435-5.2253,3.02-9.4876.5939-9.5012-5.41C224.0733,152.674,228.3092,145.3378,233.533,142.3252Z" style="fill:#05d4f5"/><g style="isolation:isolate"><path d="M222.4236,169.2486l-5.9138-3.4367c-2.4786-1.44-4.0151-4.5022-4.0278-8.8547-.0247-8.7639,6.14-19.4423,13.767-23.8455l5.9138,3.4367c-7.6268,4.4032-13.7918,15.0816-13.7669,23.8456C218.4082,164.7464,219.945,167.8082,222.4236,169.2486Z" style="fill:#05d4f5"/><g style="clip-path:url(#clip-path-12)"><g style="isolation:isolate"><path d="M222.4236,169.2486l-5.9138-3.4367c-2.2012-1.279-3.66-3.8371-3.9668-7.442l5.9133,3.4367C218.764,165.4116,220.2225,167.97,222.4236,169.2486Z" style="fill:#05d4f5"/><path d="M218.4563,161.8066,212.543,158.37q-.0584-.6817-.061-1.4127c-.0214-7.5566,4.5594-16.5361,10.7106-21.69l5.9134,3.4367c-6.1513,5.1536-10.7315,14.1331-10.71,21.69Q218.3982,161.1247,218.4563,161.8066Z" style="fill:#05d4f5"/><path d="M229.106,138.7042l-5.9134-3.4367a21.5959,21.5959,0,0,1,3.0564-2.1558l5.9138,3.4367A21.593,21.593,0,0,0,229.106,138.7042Z" style="fill:#05d4f5"/></g></g></g><g style="isolation:isolate"><path d="M233.533,142.3252l-1.37-5.7768c7.6269-4.4032,13.8285-.865,13.8534,7.899s-6.1368,19.435-13.7636,23.8387-13.8318.8713-13.8567-7.8921,6.14-19.4424,13.7669-23.8456l1.37,5.7768c-5.2238,3.0126-9.46,10.3488-9.4393,16.35.0136,6.004,4.2759,8.43,9.5012,5.41,5.2249-3.0135,9.4555-10.3419,9.436-16.3435C243.0167,141.7362,238.7569,139.3059,233.533,142.3252Z" style="fill:#05d4f5"/><g style="clip-path:url(#clip-path-13)"><g style="isolation:isolate"><path d="M233.533,142.3252l-1.37-5.7768c7.6269-4.4032,13.8285-.865,13.8534,7.899s-6.1368,19.435-13.7636,23.8387-13.8318.8713-13.8567-7.8921,6.14-19.4424,13.7669-23.8456l1.37,5.7768c-5.2238,3.0126-9.46,10.3488-9.4393,16.35.0136,6.004,4.2759,8.43,9.5012,5.41,5.2249-3.0135,9.4555-10.3419,9.436-16.3435C243.0167,141.7362,238.7569,139.3059,233.533,142.3252Z" style="fill:#12b0f3"/></g></g></g></g><g style="isolation:isolate"><g style="isolation:isolate"><path d="M236.1413,223.3865l-8.49-4.9342a4.3419,4.3419,0,0,1-1.8887-3.3l8.49,4.9342A4.3427,4.3427,0,0,0,236.1413,223.3865Z" style="fill:#dad9e8"/><g style="clip-path:url(#clip-path-14)"><g style="isolation:isolate"><path d="M236.1413,223.3865l-8.49-4.9342a4.3248,4.3248,0,0,1-1.8833-3.269l8.49,4.9342A4.3256,4.3256,0,0,0,236.1413,223.3865Z" style="fill:#dad9e8"/><path d="M234.2581,220.1175l-8.49-4.9342-.0054-.0307,8.49,4.9342Z" style="fill:#dad9e8"/></g></g></g><path d="M243.4453,134.8091l8.49,4.9342c-2.4771-1.4394-5.9113-1.26-9.7572.96l-8.49-4.9342C237.534,133.5491,240.9682,133.37,243.4453,134.8091Z" style="fill:#dad9e8"/><g style="clip-path:url(#clip-path-15)"><g style="isolation:isolate"><path d="M242.1785,140.7034l-8.49-4.9342c3.8459-2.22,7.28-2.4,9.7572-.96l8.49,4.9342C249.4586,138.3039,246.0244,138.4833,242.1785,140.7034Z" style="fill:#dad9e8"/></g></g><polygon points="234.253 220.087 225.762 215.153 217.604 163.394 226.094 168.327 234.253 220.087" style="fill:#dad9e8"/><polygon points="239.591 142.197 231.1 137.264 233.688 135.769 242.179 140.703 239.591 142.197" style="fill:#ebebf1"/><g style="isolation:isolate"><path d="M226.0939,168.3275l-8.49-4.9337c-1.3883-8.8079,5.0361-21.2456,13.4967-26.13l8.49,4.9337C231.13,147.0825,224.7058,159.52,226.0939,168.3275Z" style="fill:#ebebf1"/><g style="clip-path:url(#clip-path-16)"><g style="isolation:isolate"><path d="M226.0939,168.3275l-8.49-4.9337a20.6977,20.6977,0,0,1,.7382-8.7264l8.49,4.9342A20.6934,20.6934,0,0,0,226.0939,168.3275Z" style="fill:#ebebf1"/><path d="M226.8323,159.6016l-8.49-4.9342a32.6556,32.6556,0,0,1,4.7986-9.8782l8.49,4.9342A32.6476,32.6476,0,0,0,226.8323,159.6016Z" style="fill:#ebebf1"/><path d="M231.6309,149.7234l-8.49-4.9342a28.3119,28.3119,0,0,1,5.6739-5.9894l8.49,4.9342A28.3094,28.3094,0,0,0,231.6309,149.7234Z" style="fill:#ebebf1"/><path d="M237.3048,143.734l-8.49-4.9342a20.86,20.86,0,0,1,2.286-1.536l8.49,4.9337A20.9127,20.9127,0,0,0,237.3048,143.734Z" style="fill:#ebebf1"/></g></g></g><path d="M242.1785,140.7034c8.4607-4.8845,14.9309.1083,13.5968,10.4882L247.94,212.1849a14.9118,14.9118,0,0,1-6.8243,10.6355c-3.1057,1.793-6.2171,1.3575-6.8627-2.7336l-8.1589-51.7593c-1.3881-8.8074,5.0362-21.245,13.4969-26.13Z" style="fill:#c4c3ec"/></g></g></g></svg>